<svg width="21" height="20" viewBox="0 0 21 20" fill="none" xmlns="http://www.w3.org/2000/svg">
<path d="M4.69444 4.44444C4.69444 2.12792 6.57236 0.25 8.88889 0.25V-2.25C5.19165 -2.25 2.19444 0.747205 2.19444 4.44444H4.69444ZM8.88889 8.63889C6.57236 8.63889 4.69444 6.76097 4.69444 4.44444H2.19444C2.19444 8.14168 5.19165 11.1389 8.88889 11.1389V8.63889ZM13.0833 4.44444C13.0833 6.76097 11.2054 8.63889 8.88889 8.63889V11.1389C12.5861 11.1389 15.5833 8.14168 15.5833 4.44444H13.0833ZM8.88889 0.25C11.2054 0.25 13.0833 2.12792 13.0833 4.44444H15.5833C15.5833 0.747205 12.5861 -2.25 8.88889 -2.25V0.25ZM8.88889 -0.25C6.29622 -0.25 4.19444 1.85177 4.19444 4.44444H6.69444C6.69444 3.23249 7.67693 2.25 8.88889 2.25V-0.25ZM13.5833 4.44444C13.5833 1.85177 11.4816 -0.25 8.88889 -0.25V2.25C10.1008 2.25 11.0833 3.23249 11.0833 4.44444H13.5833ZM8.88889 9.13889C11.4816 9.13889 13.5833 7.03712 13.5833 4.44444H11.0833C11.0833 5.6564 10.1008 6.63889 8.88889 6.63889V9.13889ZM4.19444 4.44444C4.19444 7.03712 6.29622 9.13889 8.88889 9.13889V6.63889C7.67693 6.63889 6.69444 5.6564 6.69444 4.44444H4.19444ZM0.25 17.7778C0.25 15.4613 2.12792 13.5833 4.44444 13.5833V11.0833C0.747205 11.0833 -2.25 14.0805 -2.25 17.7778H0.25ZM0.25 20V17.7778H-2.25V20H0.25ZM0 19.75C0.138072 19.75 0.25 19.8619 0.25 20H-2.25C-2.25 21.2426 -1.24264 22.25 0 22.25V19.75ZM-0.25 20C-0.25 19.8619 -0.138072 19.75 0 19.75V22.25C1.24264 22.25 2.25 21.2426 2.25 20H-0.25ZM-0.25 17.7778V20H2.25V17.7778H-0.25ZM4.44444 13.0833C1.85177 13.0833 -0.25 15.1851 -0.25 17.7778H2.25C2.25 16.5658 3.23249 15.5833 4.44444 15.5833V13.0833ZM13.3333 13.0833H4.44444V15.5833H13.3333V13.0833ZM18.0278 17.7778C18.0278 15.1851 15.926 13.0833 13.3333 13.0833V15.5833C14.5453 15.5833 15.5278 16.5658 15.5278 17.7778H18.0278ZM18.0278 20V17.7778H15.5278V20H18.0278ZM17.7778 19.75C17.9158 19.75 18.0278 19.8619 18.0278 20H15.5278C15.5278 21.2426 16.5351 22.25 17.7778 22.25V19.75ZM17.5278 20C17.5278 19.8619 17.6397 19.75 17.7778 19.75V22.25C19.0204 22.25 20.0278 21.2426 20.0278 20H17.5278ZM17.5278 17.7778V20H20.0278V17.7778H17.5278ZM13.3333 13.5833C15.6499 13.5833 17.5278 15.4613 17.5278 17.7778H20.0278C20.0278 14.0805 17.0306 11.0833 13.3333 11.0833V13.5833ZM4.44444 13.5833H13.3333V11.0833H4.44444V13.5833Z" fill="#ED7902"/>
</svg>
